<svg xmlns="http://www.w3.org/2000/svg" fill="none" viewBox="17.9 75.97 138.25 192.46">
<path opacity="0.75" d="M141.242 91.6608C142.308 91.7137 142.87 92.4092 142.93 93.7471C143.13 94.9585 143.197 96.1633 143.131 97.3615L142.854 98.7494C142.676 99.5416 142.418 100.597 142.078 101.915C141.745 103.1 141.339 104.414 140.858 105.859C140.511 107.31 140.038 108.622 139.439 109.793C137.251 115.558 135.399 121.274 133.884 126.939C132.503 132.61 131.317 138.358 130.327 144.183C129.345 149.875 128.492 155.639 127.769 161.477C127.046 167.315 126.319 173.219 125.588 179.19C126.422 173.759 127.205 168.057 127.936 162.086C128.799 156.122 129.796 150.164 130.927 144.213C132.064 138.128 133.39 132.254 134.905 126.589C136.561 120.797 138.66 115.428 141.204 110.482C138.5 123.163 136.132 135.794 134.102 148.375C132.204 160.963 130.499 173.694 128.986 186.568L126.523 187.647C126.074 195.768 124.844 203.516 122.834 210.892C120.832 218.135 118.614 225.634 116.183 233.39C115.517 233.356 114.718 233.317 113.786 233.27C112.979 233.364 112.177 233.391 111.378 233.351C110.712 233.318 109.791 233.072 108.614 232.613C107.438 232.154 106.202 231.559 104.907 230.827C103.605 230.228 102.243 229.493 100.823 228.621C99.5278 227.89 98.4327 227.168 97.5373 226.456C92.017 222.444 87.1439 217.596 82.9178 211.912C78.6992 206.096 74.976 199.77 71.7483 192.935C68.5207 186.1 65.7109 178.952 63.3191 171.491C60.9346 163.896 58.6833 156.309 56.5652 148.728C54.5802 141.153 52.6508 133.782 50.7769 126.613C48.9104 119.312 47.0107 112.609 45.078 106.506L43.8243 107.445C45.7202 114.214 47.5165 121.579 49.2131 129.539C51.0501 137.373 52.9428 145.41 54.891 153.651C56.9797 161.764 59.3384 169.824 61.9671 177.831C64.7291 185.845 67.9865 193.349 71.7395 200.344C75.6256 207.345 80.218 213.647 85.5168 219.25C90.8229 224.72 97.1238 229.105 104.419 232.405C98.1229 230.356 92.5585 227.143 87.7262 222.764C83.0344 218.259 78.7826 213.042 74.9708 207.112C71.2921 201.189 68.0387 194.82 65.2106 188.004C62.523 181.063 60.1054 174.067 57.9578 167.019C55.8102 159.97 53.9216 153.068 52.292 146.313C50.6624 139.557 49.1328 133.407 47.7033 127.862C47.3943 133.454 47.3589 138.925 47.5973 144.277C47.9688 149.635 48.0037 155.044 47.702 160.502C47.1943 169.688 46.9492 178.954 46.9668 188.299C46.9917 197.512 47.0167 206.724 47.0416 215.937L42.6029 216.517C41.5375 216.464 40.7864 215.559 40.3493 213.802C39.9197 211.912 39.6342 209.828 39.493 207.552C39.3517 205.275 39.2697 203.135 39.2469 201.132C39.3647 199.002 39.4382 197.67 39.4677 197.138L37.0706 197.019C37.0118 198.084 36.8275 200.211 36.5177 203.399C36.3484 206.461 35.9721 209.646 35.3886 212.955C34.8051 216.263 33.9737 219.225 32.8944 221.842C31.9482 224.465 30.6761 225.736 29.0781 225.657C28.0127 225.604 27.1096 223.824 26.3687 220.316C25.6352 216.675 24.9606 211.969 24.3448 206.198C23.7364 200.294 23.2351 193.661 22.8408 186.3C22.4538 178.805 22.2037 171.25 22.0905 163.635C21.9772 156.02 21.9195 148.608 21.9174 141.399C22.0484 134.197 22.2647 127.867 22.5664 122.408C22.9564 115.352 23.8088 108.386 25.1236 101.51C26.5716 94.6398 28.6152 87.8663 31.2543 81.1892L53.459 78.0875C54.0734 79.0525 54.6248 79.9476 55.1133 80.7728C55.6092 81.465 56.168 82.227 56.7897 83.0588C60.3425 88.8422 63.3333 95.1316 65.7619 101.927C68.1979 108.589 70.3492 115.571 72.2157 122.873C74.0896 130.041 75.8229 137.336 77.4157 144.758C79.1491 152.053 81.0895 159.224 83.2371 166.273C85.3921 173.188 87.9649 179.79 90.9556 186.08C93.9464 192.369 97.7063 198.03 102.236 203.06C102.982 199.226 103.731 194.124 104.484 187.753C105.37 181.39 106.281 174.56 107.219 167.264C108.289 159.975 109.36 152.686 110.43 145.397C111.508 137.975 112.679 131.291 113.942 125.347C115.346 119.276 116.817 114.41 118.354 110.748C120.033 106.96 121.804 105.112 123.668 105.205L124.823 106.063C121.57 114.179 119.179 122.403 117.65 130.737C116.254 139.078 115.055 147.496 114.051 155.99C113.181 164.49 112.177 172.984 111.04 181.471C110.044 189.832 108.319 198.09 105.865 206.244L107.031 206.903C107.23 205.712 107.429 204.52 107.629 203.328C107.836 202.004 108.105 200.749 108.438 199.564C109.93 191.895 111.089 184.21 111.915 176.509C112.882 168.68 113.849 160.852 114.816 153.024C115.916 145.202 117.212 137.457 118.704 129.789C120.329 122.127 122.547 114.628 125.356 107.291L127.276 108.788C128.104 108.296 128.903 107.134 129.672 105.303C130.448 103.339 131.358 101.382 132.4 99.4314C133.45 97.3476 134.685 95.5401 136.105 94.0087C137.532 92.3442 139.245 91.5615 141.242 91.6608ZM113.075 231.633C114.805 226.913 116.401 222.187 117.865 217.454C119.328 212.721 120.533 207.841 121.478 202.815C120.414 207.568 119.088 212.241 117.498 216.835C116.05 221.302 114.597 225.835 113.141 230.435C105.306 227.242 98.9496 223.856 94.0731 220.276C89.3298 216.703 85.3447 212.7 82.1178 208.268C79.024 203.843 76.2926 198.901 73.9236 193.444C72.021 189.211 69.9444 184.502 67.6938 179.317C69.1078 182.725 70.3369 185.856 71.3809 188.712C73.0318 192.665 74.6309 196.349 76.1782 199.763C77.8659 203.051 79.635 206.076 81.4854 208.838C83.3431 211.466 85.6706 214.052 88.4679 216.594C91.2725 219.002 94.6098 221.438 98.4798 223.899C102.49 226.235 107.355 228.813 113.075 231.633ZM104.99 211.207C103.71 210.209 102.078 208.326 100.094 205.557C98.2441 202.795 96.3309 199.964 94.3547 197.062C92.519 194.034 90.8647 191.348 89.3918 189.006C87.9189 186.663 87.0529 185.419 86.7939 185.272C88.6524 190.304 91.1321 194.966 94.2333 199.259C97.4749 203.425 100.861 207.397 104.391 211.177L104.99 211.207Z" fill="#7C00DD"/>
<path opacity="0.75" d="M148.821 119.499C149.882 119.393 150.552 119.996 150.832 121.308C151.23 122.475 151.494 123.654 151.627 124.847L151.582 126.258C151.537 127.066 151.456 128.146 151.337 129.498C151.204 130.717 151.02 132.075 150.783 133.573C150.679 135.057 150.428 136.422 150.03 137.667C148.819 143.684 147.932 149.6 147.369 155.418C146.94 161.222 146.716 167.073 146.699 172.97C146.668 178.734 146.776 184.552 147.024 190.422C147.272 196.293 147.528 202.23 147.791 208.233C147.72 202.747 147.552 197.002 147.289 190.999C147.159 184.983 147.161 178.953 147.296 172.91C147.417 166.735 147.758 160.738 148.32 154.921C149.001 148.958 150.19 143.346 151.887 138.085C151.307 151.006 151.051 163.827 151.12 176.549C151.322 189.257 151.737 202.078 152.366 215.012L150.11 216.443C151.006 224.527 151.069 232.359 150.3 239.939C149.515 247.386 148.562 255.118 147.438 263.135C146.775 263.201 145.979 263.281 145.05 263.373C144.269 263.585 143.48 263.731 142.684 263.81C142.02 263.876 141.07 263.77 139.832 263.491C138.593 263.213 137.274 262.808 135.874 262.278C134.489 261.88 133.022 261.356 131.474 260.707C130.074 260.176 128.873 259.626 127.871 259.056C121.754 255.914 116.14 251.851 111.026 246.867C105.898 241.751 101.176 236.058 96.8592 229.789C92.5425 223.52 88.587 216.88 84.9929 209.869C81.3841 202.725 77.9079 195.569 74.5644 188.399C71.3536 181.215 68.2312 174.224 65.1972 167.425C62.1484 160.494 59.1658 154.159 56.2492 148.42L55.1653 149.533C58.1553 155.934 61.1451 162.939 64.1346 170.546C67.2421 178.007 70.438 185.661 73.7222 193.507C77.1244 201.207 80.7847 208.814 84.7029 216.329C88.7539 223.83 93.2104 230.756 98.0726 237.104C103.067 243.44 108.645 248.98 114.805 253.726C120.95 258.339 127.899 261.733 135.652 263.908C129.093 262.82 123.065 260.473 117.568 256.867C112.188 253.116 107.127 248.596 102.382 243.307C97.77 238.005 93.5047 232.2 89.586 225.891C85.7852 219.437 82.2425 212.89 78.9578 206.25C75.6731 199.61 72.6684 193.076 69.9437 186.648C67.2191 180.22 64.6933 174.376 62.3662 169.114C62.9832 174.68 63.8508 180.087 64.9691 185.335C66.2201 190.57 67.1467 195.904 67.749 201.337C68.7626 210.481 70.0489 219.665 71.6079 228.889C73.1522 237.98 74.6965 247.071 76.2408 256.162L71.9506 257.394C70.8892 257.499 69.9977 256.717 69.276 255.047C68.5396 253.245 67.9139 251.231 67.3988 249.004C66.8837 246.778 66.4497 244.677 66.0967 242.703C65.8616 240.582 65.7147 239.257 65.656 238.727L63.2678 238.965C63.3853 240.025 63.554 242.152 63.7739 245.346C64.1118 248.394 64.2653 251.594 64.2345 254.947C64.2037 258.3 63.8709 261.347 63.236 264.09C62.7337 266.82 61.6865 268.264 60.0944 268.423C59.033 268.529 57.8469 266.905 56.5363 263.552C55.2109 260.067 53.768 255.521 52.2076 249.915C50.6326 244.177 49.043 237.703 47.439 230.494C45.8203 223.152 44.327 215.73 42.9589 208.229C41.5909 200.729 40.3113 193.42 39.12 186.303C38.0614 179.174 37.2309 172.892 36.6287 167.459C35.8501 160.435 35.5432 153.431 35.7081 146.448C36.0056 139.451 36.9076 132.461 38.4139 125.477L59.8427 119.121C60.6089 119.983 61.3014 120.785 61.9203 121.527C62.5244 122.137 63.2023 122.806 63.9538 123.535C68.4184 128.717 72.411 134.483 75.9317 140.831C79.4377 147.047 82.7151 153.621 85.7638 160.552C88.7979 167.351 91.714 174.296 94.512 181.386C97.4281 188.331 100.528 195.123 103.813 201.763C107.083 208.27 110.715 214.407 114.707 220.172C118.7 225.938 123.349 230.968 128.654 235.262C128.759 231.366 128.657 226.218 128.35 219.817C128.176 213.403 127.95 206.526 127.673 199.184C127.528 191.829 127.384 184.475 127.239 177.12C127.08 169.632 127.134 162.861 127.402 156.805C127.788 150.603 128.438 145.581 129.354 141.738C130.387 137.749 131.832 135.662 133.69 135.477L134.972 136.153C133.097 144.647 132.091 153.122 131.955 161.576C131.952 170.018 132.155 178.506 132.564 187.04C133.106 195.561 133.516 204.095 133.793 212.643C134.187 221.044 133.845 229.453 132.766 237.867L134.026 238.345C134.026 237.139 134.027 235.933 134.027 234.727C134.013 233.389 134.073 232.11 134.206 230.891C134.415 223.099 134.293 215.34 133.839 207.614C133.503 199.742 133.167 191.87 132.831 183.999C132.628 176.114 132.631 168.275 132.84 160.483C133.182 152.678 134.136 144.946 135.701 137.287L137.846 138.48C138.583 137.87 139.181 136.605 139.638 134.683C140.081 132.63 140.657 130.562 141.365 128.482C142.059 126.269 142.981 124.301 144.132 122.579C145.267 120.724 146.83 119.697 148.821 119.499ZM144.078 261.862C145.008 256.946 145.806 252.043 146.471 247.153C147.137 242.264 147.522 237.268 147.627 232.166C147.36 237.016 146.82 241.826 146.007 246.597C145.313 251.221 144.625 255.912 143.945 260.67C135.676 258.68 128.837 256.28 123.428 253.469C118.152 250.646 113.554 247.285 109.635 243.388C105.848 239.478 102.334 235.005 99.0925 229.968C96.5143 226.072 93.6856 221.731 90.6066 216.947C92.5659 220.101 94.2969 223.01 95.7995 225.674C98.0829 229.332 100.271 232.732 102.363 235.873C104.573 238.868 106.82 241.592 109.104 244.044C111.373 246.364 114.099 248.571 117.282 250.665C120.451 252.627 124.15 254.536 128.38 256.392C132.728 258.103 137.961 259.926 144.078 261.862ZM132.72 242.896C131.29 242.101 129.367 240.484 126.95 238.045C124.666 235.593 122.309 233.081 119.877 230.51C117.564 227.793 115.486 225.387 113.645 223.293C111.803 221.199 110.742 220.098 110.462 219.992C113.128 224.684 116.347 228.919 120.12 232.696C124.01 236.328 128.011 239.748 132.123 242.956L132.72 242.896Z" fill="#E86F00"/>
<path opacity="0.75" d="M133.398 108.271C134.464 108.235 135.088 108.882 135.271 110.21C135.581 111.4 135.759 112.595 135.803 113.794L135.654 115.2C135.551 116.004 135.39 117.076 135.173 118.418C134.95 119.626 134.666 120.969 134.32 122.448C134.108 123.922 133.757 125.268 133.268 126.485C131.618 132.409 130.299 138.256 129.311 144.025C128.456 149.79 127.803 155.615 127.353 161.5C126.898 167.251 126.578 173.065 126.394 178.941C126.21 184.817 126.029 190.759 125.85 196.768C126.182 191.288 126.437 185.543 126.616 179.534C126.928 173.52 127.374 167.502 127.953 161.48C128.526 155.324 129.307 149.362 130.296 143.593C131.413 137.686 133.01 132.163 135.089 127.025C133.561 139.882 132.364 152.662 131.498 165.365C130.765 178.062 130.236 190.887 129.913 203.838L127.558 205.116C127.858 213.244 127.345 221.065 126.021 228.58C124.692 235.961 123.172 243.616 121.463 251.543C120.797 251.565 119.997 251.592 119.064 251.623C118.27 251.782 117.473 251.875 116.673 251.902C116.007 251.924 115.066 251.755 113.852 251.395C112.638 251.035 111.353 250.544 109.996 249.922C108.643 249.433 107.22 248.813 105.724 248.062C104.367 247.44 103.21 246.811 102.253 246.176C96.3849 242.635 91.0851 238.208 86.3531 232.895C81.6161 227.449 77.3259 221.454 73.4826 214.911C69.6392 208.368 66.1833 201.479 63.1149 194.243C60.0417 186.874 57.1016 179.501 54.2949 172.123C51.6214 164.741 49.0219 157.556 46.4964 150.57C43.966 143.449 41.4576 136.929 38.9714 131.008L37.8089 132.047C40.3196 138.634 42.7859 145.823 45.2076 153.614C47.7576 161.267 50.3817 169.118 53.0797 177.166C55.9061 185.077 58.9965 192.912 62.351 200.672C65.8388 208.427 69.7733 215.634 74.1547 222.293C78.6693 228.947 83.8232 234.846 89.6164 239.991C95.4047 245.002 102.084 248.85 109.655 251.534C103.194 250.014 97.3563 247.272 92.1402 243.309C87.0526 239.209 82.3377 234.362 77.9956 228.769C73.7868 223.172 69.9606 217.096 66.517 210.539C63.2017 203.845 60.1505 197.076 57.3634 190.231C54.5763 183.387 52.0606 176.666 49.8163 170.07C47.5721 163.474 45.4831 157.473 43.5496 152.068C43.7557 157.664 44.2234 163.118 44.9527 168.43C45.8153 173.738 46.3472 179.123 46.5484 184.586C46.887 193.78 47.4946 203.032 48.3711 212.341C49.2427 221.517 50.1144 230.693 50.986 239.869L46.6179 240.814C45.5518 240.85 44.7203 240.01 44.1235 238.295C43.5218 236.448 43.0459 234.396 42.696 232.139C42.346 229.883 42.0676 227.758 41.8608 225.764C41.7822 223.632 41.7332 222.299 41.7135 221.766L39.3149 221.846C39.3541 222.912 39.366 225.046 39.3505 228.248C39.4634 231.313 39.3813 234.517 39.1042 237.861C38.8271 241.206 38.2712 244.226 37.4365 246.921C36.7351 249.613 35.5848 250.985 33.9857 251.038C32.9196 251.073 31.8564 249.374 30.7959 245.941C29.7306 242.374 28.6261 237.741 27.4822 232.043C26.3335 226.211 25.2244 219.644 24.1549 212.342C23.0806 204.907 22.137 197.401 21.3242 189.824C20.5115 182.247 19.7727 174.867 19.108 167.685C18.5764 160.499 18.2101 154.174 18.0089 148.711C17.7488 141.649 17.9576 134.639 18.6352 127.679C19.4461 120.715 20.8592 113.798 22.8743 106.928L44.7077 102.002C45.4084 102.913 46.0399 103.759 46.6024 104.541C47.16 105.19 47.7867 105.903 48.4824 106.68C52.553 112.148 56.1103 118.167 59.1541 124.737C62.193 131.173 64.9777 137.951 67.5081 145.071C70.0336 152.058 72.4308 159.183 74.6996 166.445C77.0967 173.569 79.6889 180.554 82.476 187.399C85.2582 194.11 88.4279 200.476 91.9852 206.494C95.5424 212.513 99.8081 217.842 104.782 222.48C105.173 218.598 105.45 213.453 105.615 207.044C105.912 200.63 106.192 193.751 106.456 186.405C106.852 179.054 107.248 171.704 107.645 164.353C108.036 156.87 108.588 150.114 109.3 144.088C110.14 137.923 111.158 132.953 112.353 129.179C113.677 125.266 115.271 123.279 117.137 123.217L118.366 123.977C115.872 132.33 114.246 140.722 113.489 149.152C112.865 157.577 112.444 166.062 112.225 174.607C112.139 183.148 111.92 191.693 111.568 200.243C111.344 208.655 110.385 217.025 108.69 225.352L109.912 225.912C110.001 224.708 110.09 223.504 110.179 222.301C110.263 220.964 110.417 219.692 110.639 218.484C111.42 210.72 111.869 202.968 111.984 195.226C112.227 187.347 112.471 179.468 112.714 171.59C113.091 163.706 113.67 155.883 114.452 148.119C115.367 140.352 116.886 132.697 119.01 125.156L121.06 126.489C121.84 125.929 122.529 124.706 123.126 122.819C123.719 120.798 124.445 118.773 125.304 116.743C126.159 114.58 127.223 112.678 128.496 111.034C129.765 109.258 131.399 108.337 133.398 108.271ZM118.206 250.05C119.495 245.205 120.651 240.364 121.674 235.528C122.696 230.691 123.448 225.73 123.927 220.645C123.305 225.468 122.413 230.234 121.252 234.941C120.219 239.511 119.189 244.148 118.162 248.851C110.063 246.318 103.42 243.469 98.2338 240.306C93.1805 237.138 88.8429 233.48 85.2211 229.331C81.7326 225.177 78.5576 220.48 75.6961 215.238C73.4118 211.178 70.9104 206.659 68.192 201.679C69.9138 204.957 71.4259 207.976 72.7283 210.734C74.7363 214.536 76.6678 218.074 78.5228 221.348C80.5062 224.484 82.5465 227.351 84.6435 229.95C86.7357 232.415 89.2918 234.799 92.3118 237.1C95.327 239.268 98.8752 241.419 102.956 243.551C107.166 245.546 112.249 247.713 118.206 250.05ZM108.275 230.368C106.908 229.48 105.109 227.738 102.879 225.144C100.782 222.545 98.6157 219.882 96.3805 217.155C94.2736 214.29 92.3789 211.751 90.6964 209.539C89.0138 207.327 88.0368 206.158 87.7654 206.034C90.0791 210.893 92.9778 215.333 96.4614 219.353C100.073 223.236 103.811 226.914 107.675 230.388L108.275 230.368Z" fill="#E1AF00"/>
<path opacity="0.75" d="M141.81 106.389C142.875 106.336 143.511 106.972 143.718 108.297C144.051 109.482 144.25 110.673 144.316 111.871L144.194 113.279C144.105 114.084 143.964 115.159 143.771 116.504C143.571 117.715 143.312 119.063 142.993 120.547C142.808 122.025 142.482 123.376 142.015 124.601C140.475 130.551 139.263 136.419 138.381 142.203C137.632 147.98 137.087 153.814 136.745 159.705C136.395 165.463 136.183 171.281 136.107 177.158C136.031 183.036 135.959 188.98 135.891 194.991C136.122 189.506 136.271 183.758 136.34 177.747C136.541 171.73 136.876 165.706 137.344 159.675C137.804 153.512 138.476 147.538 139.358 141.754C140.366 135.83 141.862 130.282 143.846 125.111C142.555 137.99 141.593 150.787 140.96 163.501C140.461 176.208 140.169 189.038 140.083 201.991L137.753 203.308C138.201 211.429 137.833 219.257 136.647 226.792C135.454 234.193 134.075 241.871 132.512 249.825C131.846 249.858 131.047 249.898 130.115 249.944C129.323 250.117 128.528 250.223 127.729 250.263C127.063 250.296 126.12 250.143 124.899 249.803C123.679 249.463 122.384 248.993 121.016 248.394C119.654 247.927 118.219 247.331 116.71 246.605C115.342 246.006 114.173 245.396 113.204 244.777C107.272 241.334 101.891 236.996 97.0615 231.762C92.2247 226.396 87.8246 220.474 83.8611 213.996C79.8976 207.518 76.3153 200.688 73.114 193.504C69.9054 186.188 66.8299 178.865 63.8877 171.536C61.0785 164.199 58.3471 157.06 55.6932 150.116C53.032 143.04 50.4038 136.562 47.8089 130.684L46.6655 131.742C49.2973 138.286 51.8956 145.432 54.4605 153.181C57.1511 160.79 59.9194 168.596 62.7653 176.598C65.737 184.46 68.9714 192.242 72.4684 199.944C76.0986 207.64 80.1655 214.78 84.669 221.365C89.3057 227.943 94.5678 233.755 100.455 238.803C106.335 243.717 113.085 247.453 120.704 250.011C114.217 248.598 108.328 245.954 103.04 242.078C97.8772 238.063 93.0735 233.296 88.6288 227.776C84.3173 222.25 80.3796 216.238 76.8156 209.741C73.3775 203.103 70.202 196.386 67.2891 189.589C64.3763 182.792 61.7371 176.115 59.3717 169.557C57.0062 163 54.807 157.035 52.7741 151.663C53.0832 157.255 53.6512 162.7 54.4782 167.998C55.4384 173.29 56.0694 178.666 56.3711 184.124C56.8788 193.31 57.6565 202.549 58.7043 211.842C59.7447 221.001 60.7851 230.161 61.8255 239.32L57.4751 240.338C56.4097 240.391 55.5629 239.565 54.9345 237.861C54.2989 236.023 53.7853 233.98 53.3939 231.73C53.0024 229.48 52.6849 227.36 52.4414 225.369C52.3237 223.239 52.2501 221.908 52.2206 221.375L49.8236 221.494C49.8825 222.56 49.9336 224.693 49.9771 227.895C50.1463 230.957 50.1231 234.162 49.9076 237.51C49.692 240.858 49.1918 243.886 48.4068 246.595C47.7549 249.298 46.63 250.689 45.0319 250.768C43.9666 250.821 42.8722 249.14 41.7487 245.725C40.6178 242.177 39.4281 237.563 38.1795 231.885C36.9235 226.074 35.6937 219.527 34.49 212.244C33.2789 204.829 32.1973 197.34 31.2452 189.778C30.2931 182.216 29.4186 174.85 28.6217 167.681C27.958 160.505 27.4754 154.188 27.1737 148.73C26.7837 141.674 26.8634 134.662 27.413 127.693C28.0957 120.717 29.3814 113.778 31.27 106.876L53.0111 101.59C53.7284 102.489 54.3755 103.325 54.9523 104.097C55.5218 104.736 56.1615 105.439 56.8715 106.204C61.0425 111.604 64.7102 117.562 67.8747 124.08C71.0318 130.464 73.9409 137.195 76.6022 144.271C79.256 151.215 81.7841 158.298 84.1863 165.521C86.7144 172.604 89.4348 179.544 92.3477 186.341C95.2532 193.005 98.5398 199.316 102.207 205.275C105.875 211.233 110.239 216.49 115.298 221.044C115.617 217.157 115.8 212.008 115.846 205.598C116.025 199.182 116.179 192.299 116.307 184.95C116.568 177.595 116.829 170.24 117.09 162.885C117.344 155.396 117.772 148.633 118.373 142.596C119.1 136.419 120.026 131.434 121.152 127.64C122.403 123.707 123.961 121.693 125.825 121.601L127.068 122.34C124.728 130.733 123.257 139.15 122.655 147.59C122.186 156.023 121.921 164.513 121.859 173.06C121.931 181.6 121.869 190.147 121.674 198.701C121.605 207.114 120.8 215.498 119.258 223.851L120.49 224.391C120.557 223.186 120.624 221.981 120.691 220.776C120.75 219.438 120.88 218.164 121.08 216.952C121.719 209.178 122.025 201.42 121.997 193.679C122.096 185.797 122.194 177.916 122.293 170.035C122.525 162.147 122.96 154.316 123.598 146.542C124.37 138.761 125.748 131.083 127.733 123.508L129.808 124.807C130.578 124.235 131.244 123 131.807 121.103C132.362 119.073 133.051 117.037 133.873 114.993C134.687 112.817 135.716 110.897 136.96 109.233C138.196 107.436 139.812 106.488 141.81 106.389ZM129.228 248.386C130.427 243.521 131.494 238.662 132.428 233.81C133.362 228.957 134.021 223.985 134.408 218.893C133.874 223.726 133.069 228.505 131.995 233.23C131.047 237.816 130.102 242.469 129.161 247.188C121.017 244.789 114.322 242.052 109.078 238.975C103.967 235.891 99.562 232.306 95.8641 228.218C92.2994 224.123 89.0382 219.479 86.0805 214.286C83.7217 210.265 81.1374 205.788 78.3275 200.855C80.1095 204.104 81.677 207.096 83.0301 209.832C85.1078 213.6 87.1043 217.105 89.0194 220.348C91.0604 223.45 93.1532 226.283 95.298 228.846C97.4353 231.277 100.035 233.617 103.097 235.868C106.152 237.986 109.74 240.077 113.86 242.141C118.106 244.066 123.228 246.148 129.228 248.386ZM118.935 228.873C117.552 228.008 115.721 226.296 113.443 223.74C111.299 221.176 109.084 218.55 106.799 215.86C104.639 213.03 102.698 210.524 100.975 208.34C99.2517 206.156 98.2532 205.004 97.9796 204.884C100.383 209.704 103.363 214.095 106.92 218.057C110.603 221.878 114.408 225.494 118.336 228.903L118.935 228.873Z" fill="#00B031"/>
<path opacity="0.75" d="M151.676 93.8759C152.738 93.9816 153.261 94.7037 153.247 96.0422C153.38 97.2613 153.381 98.4672 153.248 99.6599L152.895 101.032C152.674 101.813 152.358 102.854 151.946 104.153C151.548 105.319 151.069 106.611 150.51 108.029C150.083 109.46 149.538 110.746 148.875 111.886C146.371 117.532 144.206 123.144 142.381 128.724C140.688 134.316 139.186 139.995 137.876 145.76C136.581 151.392 135.412 157.104 134.367 162.895C133.323 168.687 132.271 174.544 131.212 180.468C132.345 175.087 133.441 169.435 134.5 163.511C135.692 157.601 137.016 151.704 138.473 145.819C139.945 139.803 141.594 134.005 143.42 128.425C145.393 122.727 147.786 117.472 150.6 112.661C147.2 125.184 144.138 137.675 141.416 150.132C138.826 162.603 136.421 175.226 134.2 188.001L131.68 188.956C130.784 197.039 129.128 204.713 126.714 211.975C124.313 219.105 121.685 226.48 118.828 234.101C118.165 234.035 117.369 233.955 116.44 233.863C115.629 233.916 114.826 233.903 114.03 233.824C113.366 233.758 112.46 233.466 111.31 232.95C110.16 232.433 108.958 231.777 107.705 230.983C106.437 230.32 105.117 229.519 103.746 228.578C102.492 227.783 101.438 227.008 100.583 226.253C95.2891 221.974 90.6879 216.893 86.7792 211.01C82.8852 204.995 79.5143 198.495 76.6665 191.512C73.8188 184.529 71.4057 177.254 69.4275 169.688C67.4639 161.989 65.633 154.304 63.9348 146.631C62.3693 138.972 60.848 131.518 59.3711 124.27C57.9089 116.889 56.3805 110.104 54.7861 103.916L53.4818 104.791C55.0028 111.642 56.3914 119.082 57.6475 127.113C59.051 135.024 60.4988 143.14 61.9908 151.462C63.6303 159.664 65.5425 167.827 67.7273 175.95C70.0448 184.086 72.8855 191.738 76.2493 198.907C79.7457 206.089 83.9863 212.608 88.9711 218.464C93.9706 224.187 100.024 228.877 107.13 232.533C100.953 230.176 95.571 226.692 90.9847 222.081C86.5458 217.351 82.5857 211.932 79.1044 205.824C75.7558 199.729 72.8566 193.209 70.4068 186.266C68.1045 179.203 66.0748 172.101 64.3178 164.958C62.5608 157.816 61.0545 150.833 59.7989 144.008C58.5432 137.184 57.3542 130.969 56.2317 125.364C55.6147 130.93 55.2777 136.389 55.2209 141.743C55.2966 147.11 55.0334 152.51 54.4311 157.944C53.4175 167.088 52.6619 176.324 52.1643 185.654C51.6814 194.851 51.1985 204.048 50.7157 213.244L46.2492 213.603C45.1878 213.497 44.4872 212.557 44.1475 210.781C43.8224 208.873 43.6521 206.779 43.6365 204.5C43.6209 202.221 43.6569 200.08 43.7445 198.079C43.9796 195.959 44.1265 194.634 44.1852 194.104L41.7971 193.866C41.6796 194.926 41.3782 197.04 40.8929 200.207C40.5551 203.255 40.0035 206.416 39.2382 209.689C38.473 212.962 37.4791 215.878 36.2565 218.436C35.1667 221.007 33.8257 222.213 32.2336 222.054C31.1722 221.949 30.3681 220.127 29.8213 216.589C29.2892 212.918 28.8746 208.187 28.5775 202.396C28.2951 196.473 28.1599 189.827 28.1718 182.459C28.1983 174.958 28.3649 167.405 28.6715 159.798C28.9782 152.191 29.3291 144.79 29.7243 137.594C30.2522 130.412 30.8173 124.104 31.4196 118.67C32.1981 111.647 33.4337 104.736 35.1263 97.9371C36.9516 91.1518 39.3666 84.4922 42.3713 77.9583L64.7256 75.9656C65.2861 76.9593 65.7877 77.8802 66.2302 78.7282C66.6875 79.4437 67.2037 80.2321 67.779 81.0933C71.0096 87.0427 73.6508 93.4692 75.7025 100.373C77.7689 107.144 79.5332 114.22 80.9954 121.601C82.4724 128.85 83.8019 136.217 84.9841 143.704C86.3137 151.072 87.857 158.327 89.614 165.47C91.3856 172.479 93.592 179.198 96.2332 185.624C98.8744 192.051 102.319 197.887 106.566 203.134C107.523 199.344 108.553 194.288 109.656 187.967C110.892 181.659 112.179 174.887 113.518 167.651C114.989 160.428 116.46 153.206 117.932 145.983C119.418 138.628 120.956 132.015 122.545 126.144C124.282 120.154 126.02 115.369 127.758 111.791C129.644 108.093 131.515 106.337 133.373 106.522L134.478 107.436C130.782 115.375 127.94 123.466 125.953 131.709C124.099 139.965 122.436 148.308 120.965 156.736C119.627 165.178 118.156 173.606 116.553 182.022C115.096 190.318 112.918 198.475 110.017 206.493L111.145 207.208C111.41 206.029 111.675 204.849 111.94 203.67C112.219 202.358 112.558 201.118 112.955 199.952C114.869 192.372 116.45 184.758 117.7 177.112C119.098 169.346 120.495 161.58 121.893 153.814C123.423 146.061 125.145 138.395 127.058 130.814C129.104 123.247 131.733 115.872 134.943 108.689L136.779 110.278C137.634 109.828 138.496 108.708 139.365 106.918C140.249 104.997 141.265 103.088 142.414 101.193C143.578 99.1652 144.911 97.4222 146.414 95.9642C147.932 94.3736 149.686 93.6775 151.676 93.8759ZM115.82 232.193C117.809 227.568 119.664 222.929 121.387 218.278C123.11 213.626 124.582 208.815 125.804 203.845C124.479 208.537 122.896 213.136 121.055 217.642C119.362 222.028 117.661 226.481 115.952 231.001C108.3 227.424 102.137 223.728 97.4627 219.913C92.9209 216.111 89.1602 211.917 86.1807 207.333C83.3339 202.762 80.8775 197.693 78.8116 192.128C77.1442 187.808 75.3291 183.005 73.3665 177.718C74.5914 181.19 75.6466 184.376 76.5322 187.278C77.9637 191.307 79.3582 195.063 80.7157 198.548C82.2206 201.914 83.8212 205.021 85.5176 207.87C87.2286 210.586 89.4114 213.282 92.0658 215.958C94.735 218.502 97.9348 221.099 101.665 223.748C105.543 226.279 110.262 229.094 115.82 232.193ZM108.869 211.403C107.645 210.343 106.119 208.382 104.29 205.52C102.593 202.671 100.838 199.75 99.0236 196.755C97.3567 193.641 95.852 190.879 94.5096 188.467C93.1672 186.055 92.3707 184.77 92.12 184.611C93.6993 189.726 95.9197 194.503 98.7812 198.942C101.79 203.261 104.954 207.395 108.272 211.343L108.869 211.403Z" fill="#E10000"/>
<path opacity="0.75" d="M154.242 99.2463C155.308 99.2992 155.87 99.9946 155.93 101.333C156.13 102.544 156.197 103.749 156.131 104.947L155.854 106.335C155.676 107.127 155.418 108.182 155.078 109.5C154.745 110.685 154.339 112 153.858 113.444C153.511 114.896 153.038 116.207 152.439 117.379C150.251 123.144 148.399 128.859 146.884 134.524C145.503 140.196 144.317 145.944 143.327 151.768C142.345 157.46 141.492 163.225 140.769 169.063C140.046 174.9 139.319 180.805 138.588 186.776C139.423 181.344 140.205 175.643 140.936 169.672C141.799 163.707 142.796 157.749 143.927 151.798C145.064 145.714 146.39 139.839 147.905 134.174C149.561 128.383 151.66 123.014 154.204 118.067C151.5 130.748 149.132 143.38 147.102 155.961C145.204 168.549 143.499 181.28 141.986 194.153L139.523 195.233C139.074 203.353 137.845 211.102 135.834 218.478C133.832 225.72 131.614 233.22 129.183 240.975C128.517 240.942 127.718 240.902 126.786 240.856C125.979 240.949 125.177 240.976 124.378 240.936C123.712 240.903 122.791 240.657 121.614 240.198C120.438 239.739 119.202 239.144 117.907 238.412C116.605 237.814 115.243 237.078 113.823 236.207C112.528 235.475 111.433 234.753 110.537 234.041C105.017 230.029 100.144 225.181 95.9179 219.498C91.6992 213.681 87.976 207.356 84.7484 200.52C81.5208 193.685 78.711 186.537 76.3192 179.076C73.9347 171.482 71.6834 163.894 69.5652 156.313C67.5803 148.739 65.6508 141.367 63.777 134.199C61.9104 126.897 60.0108 120.195 58.0781 114.092L56.8244 115.03C58.7203 121.799 60.5166 129.164 62.2131 137.125C64.0502 144.959 65.9428 152.996 67.891 161.236C69.9797 169.349 72.3385 177.41 74.9672 185.417C77.7291 193.43 80.9866 200.934 84.7395 207.929C88.6257 214.93 93.2181 221.233 98.5169 226.836C103.823 232.306 110.124 236.691 117.419 239.99C111.123 237.942 105.559 234.728 100.726 230.35C96.0345 225.845 91.7827 220.627 87.9708 214.698C84.2922 208.774 81.0388 202.405 78.2106 195.59C75.523 188.648 73.1054 181.653 70.9579 174.604C68.8103 167.556 66.9217 160.654 65.2921 153.898C63.6625 147.142 62.1329 140.992 60.7034 135.448C60.3943 141.039 60.359 146.511 60.5973 151.863C60.9688 157.221 61.0037 162.629 60.7021 168.087C60.1943 177.273 59.9493 186.539 59.9668 195.885C59.9918 205.097 60.0167 214.31 60.0417 223.522L55.603 224.103C54.5376 224.05 53.7864 223.145 53.3494 221.387C52.9197 219.497 52.6343 217.414 52.4931 215.137C52.3518 212.861 52.2698 210.721 52.247 208.717C52.3647 206.587 52.4383 205.256 52.4677 204.723L50.0707 204.604C50.0118 205.669 49.8275 207.796 49.5177 210.985C49.3485 214.047 48.9722 217.232 48.3887 220.54C47.8052 223.849 46.9738 226.811 45.8945 229.427C44.9483 232.05 43.6762 233.322 42.0781 233.242C41.0128 233.19 40.1097 231.409 39.3688 227.901C38.6353 224.261 37.9607 219.555 37.3449 213.784C36.7365 207.88 36.2351 201.247 35.8408 193.885C35.4539 186.39 35.2038 178.835 35.0905 171.22C34.9773 163.605 34.9196 156.193 34.9174 148.985C35.0484 141.782 35.2648 135.452 35.5665 129.994C35.9565 122.938 36.8089 115.972 38.1237 109.095C39.5717 102.225 41.6153 95.4518 44.2544 88.7747L66.4591 85.6729C67.0734 86.6379 67.6249 87.5331 68.1134 88.3583C68.6093 89.0504 69.1681 89.8124 69.7898 90.6443C73.3426 96.4276 76.3333 102.717 78.762 109.513C81.198 116.175 83.3492 123.157 85.2157 130.458C87.0896 137.627 88.823 144.922 90.4158 152.343C92.1491 159.638 94.0896 166.81 96.2372 173.858C98.3921 180.774 100.965 187.376 103.956 193.665C106.946 199.955 110.706 205.615 115.236 210.646C115.982 206.812 116.731 201.709 117.484 195.339C118.37 188.975 119.281 182.145 120.219 174.85C121.289 167.561 122.36 160.271 123.43 152.982C124.508 145.56 125.679 138.877 126.942 132.932C128.346 126.861 129.817 121.995 131.355 118.334C133.033 114.546 134.804 112.698 136.668 112.791L137.823 113.649C134.57 121.764 132.179 129.989 130.65 138.323C129.254 146.664 128.055 155.081 127.051 163.575C126.181 172.075 125.177 180.569 124.04 189.057C123.044 197.417 121.319 205.675 118.865 213.83L120.031 214.489C120.23 213.297 120.43 212.105 120.629 210.914C120.836 209.589 121.105 208.334 121.438 207.149C122.93 199.481 124.089 191.796 124.916 184.094C125.882 176.266 126.849 168.438 127.816 160.609C128.916 152.788 130.212 145.043 131.704 137.374C133.33 129.712 135.547 122.213 138.356 114.877L140.276 116.374C141.105 115.881 141.903 114.719 142.672 112.889C143.448 110.925 144.358 108.967 145.4 107.017C146.45 104.933 147.685 103.126 149.105 101.594C150.532 99.9296 152.245 99.147 154.242 99.2463ZM126.075 239.219C127.805 234.499 129.401 229.772 130.865 225.039C132.328 220.306 133.533 215.426 134.478 210.401C133.414 215.154 132.088 219.827 130.498 224.42C129.05 228.887 127.597 233.42 126.141 238.02C118.306 234.828 111.95 231.441 107.073 227.862C102.33 224.289 98.3447 220.286 95.1178 215.854C92.0241 211.428 89.2927 206.487 86.9236 201.029C85.021 196.796 82.9444 192.087 80.6938 186.903C82.1079 190.31 83.3369 193.442 84.3809 196.297C86.0319 200.25 87.631 203.934 89.1782 207.349C90.866 210.636 92.6351 213.661 94.4854 216.423C96.3432 219.052 98.6707 221.637 101.468 224.179C104.273 226.588 107.61 229.023 111.48 231.485C115.49 233.82 120.355 236.398 126.075 239.219ZM117.99 218.792C116.71 217.794 115.078 215.911 113.095 213.143C111.244 210.381 109.331 207.549 107.355 204.647C105.519 201.619 103.865 198.934 102.392 196.591C100.919 194.249 100.053 193.004 99.794 192.858C101.652 197.89 104.132 202.552 107.233 206.844C110.475 211.01 113.861 214.983 117.391 218.763L117.99 218.792Z" fill="#004FEA"/>
<path opacity="0.75" d="M146.465 101.512C147.532 101.512 148.132 102.179 148.265 103.512C148.532 104.712 148.665 105.912 148.665 107.112L148.465 108.512C148.332 109.312 148.132 110.379 147.865 111.712C147.599 112.912 147.265 114.245 146.865 115.712C146.599 117.179 146.199 118.512 145.665 119.712C143.799 125.579 142.265 131.379 141.065 137.112C139.999 142.845 139.132 148.645 138.465 154.512C137.799 160.245 137.265 166.045 136.865 171.912C136.465 177.779 136.065 183.712 135.665 189.712C136.199 184.245 136.665 178.512 137.065 172.512C137.599 166.512 138.265 160.512 139.065 154.512C139.865 148.379 140.865 142.445 142.065 136.712C143.399 130.845 145.199 125.379 147.465 120.312C145.465 133.112 143.799 145.845 142.465 158.512C141.265 171.179 140.265 183.979 139.465 196.912L137.065 198.112C137.065 206.245 136.265 214.045 134.665 221.512C133.065 228.845 131.265 236.445 129.265 244.312C128.599 244.312 127.799 244.312 126.865 244.312C126.065 244.445 125.265 244.512 124.465 244.512C123.799 244.512 122.865 244.312 121.665 243.912C120.465 243.512 119.199 242.979 117.865 242.312C116.532 241.779 115.132 241.112 113.665 240.312C112.332 239.645 111.199 238.979 110.265 238.312C104.532 234.579 99.3986 229.979 94.8653 224.512C90.332 218.912 86.2653 212.779 82.6653 206.112C79.0653 199.445 75.8653 192.445 73.0653 185.112C70.2653 177.645 67.5986 170.179 65.0653 162.712C62.6653 155.245 60.332 147.979 58.0653 140.912C55.7986 133.712 53.532 127.112 51.2653 121.112L50.0653 122.112C52.332 128.779 54.532 136.045 56.6653 143.912C58.932 151.645 61.2653 159.579 63.6653 167.712C66.1986 175.712 68.9986 183.645 72.0653 191.512C75.2653 199.379 78.932 206.712 83.0653 213.512C87.332 220.312 92.2653 226.379 97.8653 231.712C103.465 236.912 109.999 240.979 117.465 243.912C111.065 242.179 105.332 239.245 100.265 235.112C95.332 230.845 90.7986 225.845 86.6653 220.112C82.6653 214.379 79.0653 208.179 75.8653 201.512C72.7986 194.712 69.9986 187.845 67.4653 180.912C64.932 173.979 62.6653 167.179 60.6653 160.512C58.6653 153.845 56.7986 147.779 55.0653 142.312C55.0653 147.912 55.332 153.379 55.8653 158.712C56.532 164.045 56.8653 169.445 56.8653 174.912C56.8653 184.112 57.132 193.379 57.6653 202.712C58.1986 211.912 58.732 221.112 59.2653 230.312L54.8653 231.112C53.7986 231.112 52.9986 230.245 52.4653 228.512C51.932 226.645 51.532 224.579 51.2653 222.312C50.9986 220.045 50.7986 217.912 50.6653 215.912C50.6653 213.779 50.6653 212.445 50.6653 211.912H48.2653C48.2653 212.979 48.1986 215.112 48.0653 218.312C48.0653 221.379 47.8653 224.579 47.4653 227.912C47.0653 231.245 46.3986 234.245 45.4653 236.912C44.6653 239.579 43.4653 240.912 41.8653 240.912C40.7986 240.912 39.7986 239.179 38.8653 235.712C37.932 232.112 36.9986 227.445 36.0653 221.712C35.132 215.845 34.2653 209.245 33.4653 201.912C32.6653 194.445 31.9986 186.912 31.4653 179.312C30.932 171.712 30.4653 164.312 30.0653 157.112C29.7986 149.912 29.6653 143.579 29.6653 138.112C29.6653 131.045 30.132 124.045 31.0653 117.112C32.132 110.179 33.7986 103.312 36.0653 96.5119L58.0653 92.3119C58.732 93.2452 59.332 94.1119 59.8653 94.9119C60.3986 95.5785 60.9986 96.3119 61.6653 97.1118C65.532 102.712 68.8653 108.845 71.6653 115.512C74.4653 122.045 76.9986 128.912 79.2653 136.112C81.532 143.179 83.6653 150.379 85.6653 157.712C87.7986 164.912 90.132 171.979 92.6653 178.912C95.1986 185.712 98.132 192.179 101.465 198.312C104.799 204.445 108.865 209.912 113.665 214.712C114.199 210.845 114.665 205.712 115.065 199.312C115.599 192.912 116.132 186.045 116.665 178.712C117.332 171.379 117.999 164.045 118.665 156.712C119.332 149.245 120.132 142.512 121.065 136.512C122.132 130.379 123.332 125.445 124.665 121.712C126.132 117.845 127.799 115.912 129.665 115.912L130.865 116.712C128.065 124.979 126.132 133.312 125.065 141.712C124.132 150.112 123.399 158.579 122.865 167.112C122.465 175.645 121.932 184.179 121.265 192.712C120.732 201.112 119.465 209.445 117.465 217.712L118.665 218.312C118.799 217.112 118.932 215.912 119.065 214.712C119.199 213.379 119.399 212.112 119.665 210.912C120.732 203.179 121.465 195.445 121.865 187.712C122.399 179.845 122.932 171.979 123.465 164.112C124.132 156.245 124.999 148.445 126.065 140.712C127.265 132.979 129.065 125.379 131.465 117.912L133.465 119.312C134.265 118.779 134.999 117.579 135.665 115.712C136.332 113.712 137.132 111.712 138.065 109.712C138.999 107.579 140.132 105.712 141.465 104.112C142.799 102.379 144.465 101.512 146.465 101.512ZM126.065 242.712C127.532 237.912 128.865 233.112 130.065 228.312C131.265 223.512 132.199 218.579 132.865 213.512C132.065 218.312 130.999 223.045 129.665 227.712C128.465 232.245 127.265 236.845 126.065 241.512C118.065 238.712 111.532 235.645 106.465 232.312C101.532 228.979 97.332 225.179 93.8653 220.912C90.532 216.645 87.532 211.845 84.8653 206.512C82.732 202.379 80.3986 197.779 77.8653 192.712C79.4653 196.045 80.8653 199.112 82.0653 201.912C83.932 205.779 85.732 209.379 87.4653 212.712C89.332 215.912 91.2653 218.845 93.2653 221.512C95.2653 224.045 97.732 226.512 100.665 228.912C103.599 231.179 107.065 233.445 111.065 235.712C115.199 237.845 120.199 240.179 126.065 242.712ZM116.865 222.712C115.532 221.779 113.799 219.979 111.665 217.312C109.665 214.645 107.599 211.912 105.465 209.112C103.465 206.179 101.665 203.579 100.065 201.312C98.4653 199.045 97.532 197.845 97.2653 197.712C99.3986 202.645 102.132 207.179 105.465 211.312C108.932 215.312 112.532 219.112 116.265 222.712H116.865Z" fill="black"/>
</svg>